<svg id="图层_1" data-name="图层 1" xmlns="http://www.w3.org/2000/svg" viewBox="0 0 36.13 35.77"><defs><style>.cls-1{fill:lime;}</style></defs><title>logo</title><path d="M24.64,7A7.18,7.18,0,0,0,14.15.8,7.18,7.18,0,0,0,3.67,7V9.34H0V35.77H26.43V9.34h-1.8ZM17.44.63A6.57,6.57,0,0,1,24,7V9.34H18.06V7a7,7,0,0,0-3.26-5.83A6.53,6.53,0,0,1,17.44.63Zm0,8.71H10.87V7a6.42,6.42,0,0,1,3.29-5.49A6.42,6.42,0,0,1,17.44,7ZM4.29,7a6.56,6.56,0,0,1,9.2-5.83A7,7,0,0,0,10.24,7V9.34H4.29ZM.63,35.14V10h3v2.63h.63V10H17.44v2.63h.63V10h3.71V35.14Zm25.18,0H22.4V10h3.41Z"/><path d="M14.79,23.57a2.58,2.58,0,1,0,2.58,2.58A2.58,2.58,0,0,0,14.79,23.57Zm0,4.53a2,2,0,1,1,2-2A2,2,0,0,1,14.79,28.09Z"/><circle class="cls-1" cx="7.61" cy="18.96" r="2.58"/><path d="M7.61,21.78A2.82,2.82,0,1,1,10.42,19,2.82,2.82,0,0,1,7.61,21.78Zm0-5.15A2.34,2.34,0,1,0,9.94,19,2.34,2.34,0,0,0,7.61,16.62Z"/><rect x="2.87" y="22.24" width="16.65" height="0.63" transform="translate(-12.67 14.52) rotate(-45)"/><polygon points="30.92 9.46 32.51 7.18 34.1 9.46 35.3 8.6 33.56 6.4 36.13 5.7 35.63 4.29 33.19 5.13 33.19 2.48 31.81 2.48 31.81 5.13 29.35 4.29 28.87 5.7 31.44 6.4 29.68 8.62 30.92 9.46"/></svg>