<svg id="图层_1" data-name="图层 1" xmlns="http://www.w3.org/2000/svg" viewBox="0 0 193.5 58.5"><defs><style>.cls-1{fill:lime;}</style></defs><title>logo</title><path d="M10,23V36.61a1.1,1.1,0,0,1-1.1,1.1H7.33a1.1,1.1,0,0,1-1.1-1.1V23a1.1,1.1,0,0,0-1.1-1.1H2.35a1.1,1.1,0,0,1-1.1-1.1V19.71a1.1,1.1,0,0,1,1.1-1.1H13.86a1.1,1.1,0,0,1,1.1,1.1v1.13a1.1,1.1,0,0,1-1.1,1.1h-2.8A1.1,1.1,0,0,0,10,23Z"/><path d="M29,35.78a6.9,6.9,0,0,1-5.15,2.09,7,7,0,0,1-5.17-2.09c-1.93-1.93-1.88-4.32-1.88-7.61s-.05-5.68,1.88-7.62a7,7,0,0,1,5.17-2.09A6.9,6.9,0,0,1,29,20.55c1.93,1.93,1.9,4.32,1.9,7.62S30.94,33.85,29,35.78Zm-2.76-13a3.1,3.1,0,0,0-2.39-1,3.16,3.16,0,0,0-2.41,1c-.72.8-.91,1.69-.91,5.36s.19,4.56.91,5.36a3.16,3.16,0,0,0,2.41,1,3.1,3.1,0,0,0,2.39-1c.72-.8.94-1.69.94-5.36S27,23.6,26.25,22.8Z"/><path d="M55.61,35.88a7,7,0,0,1-5,1.82h-5.8a1.1,1.1,0,0,1-1.1-1.1V19.71a1.1,1.1,0,0,1,1.1-1.1h5.8a7,7,0,0,1,5,1.82c2.15,2.15,1.93,4.77,1.93,7.64S57.76,33.74,55.61,35.88ZM53,23.12a3.33,3.33,0,0,0-2.79-1.18H47.41V34.38h2.82A3.32,3.32,0,0,0,53,33.2c.7-.86.8-2.22.8-5.12S53.71,24,53,23.12Z"/><path d="M71.7,37l-.63-1.88a1.1,1.1,0,0,0-1-.75H64.82a1.1,1.1,0,0,0-1,.74L63.14,37a1.1,1.1,0,0,1-1,.74H59l6.68-18.37a1.1,1.1,0,0,1,1-.72H68.1a1.1,1.1,0,0,1,1,.72l6.71,18.37h-3.1A1.1,1.1,0,0,1,71.7,37Zm-5.25-9.68-.86,2.46a1.1,1.1,0,0,0,1,1.46h1.68a1.1,1.1,0,0,0,1-1.44l-.83-2.46A1.1,1.1,0,0,0,66.45,27.28Z"/><path d="M84.56,30.14v6.47a1.1,1.1,0,0,1-1.1,1.1H82a1.1,1.1,0,0,1-1.1-1.1V30.14a1.1,1.1,0,0,0-.12-.5l-5.62-11h3.35a1.1,1.1,0,0,1,1,.64l2.27,4.9a1.1,1.1,0,0,0,2,0L86,19.26a1.1,1.1,0,0,1,1-.64H90.3l-5.62,11A1.1,1.1,0,0,0,84.56,30.14Z"/><rect class="cls-1" x="32.55" y="42.72" width="8.41" height="3.32" rx="0.34" ry="0.34"/><circle cx="78.48" cy="19.69" r="1.07"/><circle cx="76.91" cy="19.69" r="1.07"/><path d="M108.43,23.7H106v2.52a.72.72,0,0,1-.72.72H100v2.44h12v2.24a.72.72,0,0,1-.36.62l-5.07,2.93a.72.72,0,0,1-.36.1h-4.35v2.44h4.59a2.26,2.26,0,0,0,1.12-.3l6.31-3.63a1.11,1.11,0,0,0,.56-1V27.66a.72.72,0,0,0-.72-.72h-4.55a.72.72,0,0,1-.72-.72Z"/><path d="M101.14,18.62a2.12,2.12,0,0,0-1.83,1.06l-1.65,2.86,2.12,1.22L101,21.6a1.08,1.08,0,0,1,.93-.54h10.51a1.08,1.08,0,0,1,.93.54l1.24,2.15,2.12-1.22-1.65-2.86a2.12,2.12,0,0,0-1.83-1.06Z"/><path d="M124.95,18.62a.84.84,0,0,0-.84.84V37.71h2.44V36.12h10.89v1.59h2.44V19.45a.84.84,0,0,0-.84-.84Zm12.49,3.28v3.41a.84.84,0,0,1-.84.84h-9.21a.84.84,0,0,1-.84-.84V21.9a.84.84,0,0,1,.84-.84h9.21A.84.84,0,0,1,137.44,21.9ZM126.55,32.84V29.43a.84.84,0,0,1,.84-.84h9.21a.84.84,0,0,1,.84.84v3.41a.84.84,0,0,1-.84.84h-9.21A.84.84,0,0,1,126.55,32.84Z"/><rect x="147.24" y="18.62" width="4.37" height="2.44"/><path d="M147.24,26.8h1.91v8.94l-1.91.38v1.59h4.35l0-12.79a.55.55,0,0,0-.55-.55h-3.81Z"/><path d="M162.4,35l2.66-1.53h0v-6a.55.55,0,0,0-.55-.55h-9.14a.55.55,0,0,0-.55.55v6h0L157.52,35l-.48.27h-3.39v2.44h4l2-1.15a.55.55,0,0,1,.55,0l2,1.15h4.11V35.27h-3.45Zm-4.85-2.8a.55.55,0,0,1-.28-.48V29.38h5.36v2.33a.55.55,0,0,1-.28.48l-2.13,1.23a.55.55,0,0,1-.55,0Z"/><path d="M157.52,25.18V21.61a.55.55,0,0,1,.55-.55h3.78a.55.55,0,0,1,.55.55v3.57a.55.55,0,0,0,.55.55h2.84V24.15l-1-.19V19.17a.55.55,0,0,0-.55-.55h-8.66a.55.55,0,0,0-.55.55V24l-1,.19v1.59H157A.55.55,0,0,0,157.52,25.18Z"/><path d="M173.16,26.8h1.91v8.94l-1.91.38v1.59h4.35l0-12.57a.77.77,0,0,0-.77-.77h-3.59Z"/><path d="M192.25,24.36h-4.41a.77.77,0,0,1-.77-.77v-5h-2.44v5a.77.77,0,0,1-.77.77h-4.41V26.8h4.41a.77.77,0,0,1,.77.77V37.71h2.44V27.58a.77.77,0,0,1,.77-.77h4.41Z"/><rect x="173.16" y="18.62" width="4.37" height="2.44"/></svg>